{"title":"Burning.Bright.2010.BDRip.XVID.AC3.HQ.Hive-CM8","uid":6311011,"size":1527223936,"categoryP":"video","categoryS":"movies","magnet":"?xt=urn:btih:41cf20b0d332a4a96d3735e434ffd9aaaed6a23d&amp;dn=Burning.Bright.2010.BDRip.XVID.AC3.HQ.Hive-CM8&amp;tr=udp%3A%2F%2Ftracker.openbittorrent.com%3A80&amp;tr=udp%3A%2F%2Fopen.demonii.com%3A1337&amp;tr=udp%3A%2F%2Ftracker.coppersurfer.tk%3A6969&amp;tr=udp%3A%2F%2Fexodus.desync.com%3A6969","seeders":0,"leechers":0,"uploader":"sceneline","files":5,"time":1302533490,"description":"-\nhttp:// www. Speed. Cd       \nhttp:// www. Speed. Cd       the fast  and The Hottest Private Tracker on the net\n\nPlease Seed back to make the speed Faster!!!\n\nand don't forget to visit      ...... www. Speed. Cd..........\n-[img]http://img51.imageshack.us/img51/2083/zetaqt.jpg[/img]\n\n[color=blue][size=5][b]Burning.Bright.2010.BDRip.XVID.AC3.HQ.Hive-CM8[/b][/size][/color]\n\n\n[b]Thx Hive\n\nCM8 Doing It Right The First Time :D\n\nWhy download a touched up rip of a rip BRrip\nGet the real deal BDRip\nEnjoy\n\nSource Bluray\n\nVideo: 720x400 @bitrate 1800 2pass\nAudio: English DTS to AC3 5.1 @448\nSample: yes included[/b]\n\n\n[url]http://www.imdb.com/title/tt1244658/[/url]\n\n\nGeneral\nComplete name                    : Burning.Bright.2010.BDRip.XVID.AC3.HQ.Hive-CM8.avi\nFormat                           : AVI\nFormat/Info                      : Audio Video Interleave\nFile size                        : 1.42 GiB\nDuration                         : 1h 29mn\nOverall bit rate                 : 2 268 Kbps\nWriting application              : Nandub v1.0rc2\nWriting library                  : Nandub build 1853/release\n\nVideo\nID                               : 0\nFormat                           : MPEG-4 Visual\nFormat profile                   : Advanced Simple@L5\nFormat settings, BVOP            : Yes\nFormat settings, QPel            : Yes\nFormat settings, GMC             : No warppoints\nFormat settings, Matrix          : Default (H.263)\nMuxing mode                      : Packed bitstream\nCodec ID                         : XVID\nCodec ID/Hint                    : XviD\nDuration                         : 1h 29mn\nBit rate                         : 1 810 Kbps\nWidth                            : 720 pixels\nHeight                           : 400 pixels\nDisplay aspect ratio             : 16:9\nFrame rate                       : 23.976 fps\nColor space                      : YUV\nChroma subsampling               : 4:2:0\nBit depth                        : 8 bits\nScan type                        : Progressive\nBits/(Pixel*Frame)               : 0.262\nStream size                      : 1.13 GiB (80%)\nWriting library                  : XviD 1.2.1 (UTC 2008-12-04)\n\nAudio\nID                               : 1\nFormat                           : AC-3\nFormat/Info                      : Audio Coding 3\nMode extension                   : CM (complete main)\nCodec ID                         : 2000\nDuration                         : 1h 29mn\nBit rate mode                    : Constant\nBit rate                         : 448 Kbps\nChannel(s)                       : 6 channels\nChannel positions                : Front: L C R, Side: L R, LFE\nSampling rate                    : 48.0 KHz\nBit depth                        : 16 bits\nStream size                      : 287 MiB (20%)\nAlignment                        : Split accross interleaves\nInterleave, duration             : 42 ms (1.00 video frame)\nInterleave, preload duration     : 500 ms\n\n\n\nGarret Dillahunt ... Johnny Gaveneau\nBriana Evigan ... Kelly Taylor\nCharlie Tahan ... Tom Taylor\nPeggy Sheffield ... Doctor Orsi\nMary Rachel Dudley ... Catherine Taylor\nTom Nowicki ... Sheriff \n\n\nA thriller centered on a young woman and her autistic little brother \nwho are trapped in a house with a ravenous tiger during a hurricane.\n\n \n[img]http://img831.imageshack.us/img831/4422/bbububuu.png[/img]\n[img]http://img830.imageshack.us/img830/4269/bbubuu.png[/img]\n[img]http://img233.imageshack.us/img233/9548/bbuu.png[/img]\n[img]http://img685.imageshack.us/img685/1893/83501602.png[/img]\n[img]http://img42.imageshack.us/img42/2478/bbubububuu.png[/img]\n\n\n\n\n\nGreetz\n\nViSiON,LUSi,SANTi,MAGNET,THC,T0XiCiNK,LKRG,IMAGiNE,WBZ,FLAWL3SS,NOVA\nVik,Rapeseed,D2U,SAFC,goldadvance,MEMORY100,KaN1vE,Unevano,Pinnz,Wayne,Mr Hive\nand all P2P groups \nGreat Work Guys :D\n\n&lt;a class=&quot;__cf_email__&quot; href=&quot;/cdn-cgi/l/email-protection&quot; data-cfemail=&quot;f8bbb5c0b8908d8b9095999194d69b9795&quot;&gt;[email&amp;#160;protected]&lt;/a&gt;&lt;script cf-hash='f9e31' type=&quot;text/javascript&quot;&gt;\n/* &lt;![CDATA[ */!function(){try{var t=&quot;currentScript&quot;in document?document.currentScript:function(){for(var t=document.getElementsByTagName(&quot;script&quot;),e=t.length;e--;)if(t[e].getAttribute(&quot;cf-hash&quot;))return t[e]}();if(t&amp;&amp;t.previousSibling){var e,r,n,i,c=t.previousSibling,a=c.getAttribute(&quot;data-cfemail&quot;);if(a){for(e=&quot;&quot;,r=parseInt(a.substr(0,2),16),n=2;a.length-n;n+=2)i=parseInt(a.substr(n,2),16)^r,e+=String.fromCharCode(i);e=document.createTextNode(e),c.parentNode.replaceChild(e,c)}}}catch(u){}}();/* ]]&gt; */&lt;/script&gt;","torrent":{"xt":"urn:btih:41cf20b0d332a4a96d3735e434ffd9aaaed6a23d","amp;dn":"Burning.Bright.2010.BDRip.XVID.AC3.HQ.Hive-CM8","amp;tr":["udp%3A%2F%2Ftracker.openbittorrent.com%3A80","udp%3A%2F%2Fopen.demonii.com%3A1337","udp%3A%2F%2Ftracker.coppersurfer.tk%3A6969","udp%3A%2F%2Fexodus.desync.com%3A6969"],"infoHash":"41cf20b0d332a4a96d3735e434ffd9aaaed6a23d","infoHashBuffer":{"type":"Buffer","data":[65,207,32,176,211,50,164,169,109,55,53,228,52,255,217,170,174,214,162,61]},"announce":[],"urlList":[]}}